<svg width="7360" height="6048" viewBox="0 0 7360 6048" fill="none" xmlns="http://www.w3.org/2000/svg">
<rect width="7360" height="6048" rx="200" fill="black"/>
<rect x="479" y="3532" width="2198" height="2117" rx="95" fill="black" stroke="#0058A8" stroke-width="10"/>
<path d="M1251.14 5026.43L1113.03 5115.37L1030.77 5157.83L1013.91 5183.79L996.666 5211.77L965.474 5241.33L941.358 5260.07L907.455 5277.57L865.438 5292.98L826.402 5305.99L790.446 5312.69L754.854 5317.49L718.49 5320.88L659.197 5329.83L701.083 5302.51L731.442 5272.13L743.737 5252.21L749.205 5232.79L1001.24 5083.85L1191.74 4953.27L2398.19 4156.59L2431.96 4209.68L2465.1 4264.02L2465.33 4264.41L1251.14 5026.43Z" fill="#0058A8" fill-opacity="0.5"/>
<path d="M2397.25 4157.17C2403.93 4152.87 2411.4 4150.01 2419.25 4148.75C2427.1 4147.49 2435.16 4147.86 2442.98 4149.84C2450.8 4151.82 2458.22 4155.37 2464.82 4160.28C2471.42 4165.19 2477.06 4171.37 2481.44 4178.47C2485.81 4185.57 2488.83 4193.45 2490.31 4201.65C2491.8 4209.85 2491.72 4218.23 2490.09 4226.29C2488.46 4234.35 2485.31 4241.94 2480.81 4248.63C2476.31 4255.32 2470.55 4260.98 2463.87 4265.28L2430.56 4211.23L2397.25 4157.17Z" fill="#002C54"/>
<path d="M856.486 5225.66C852.565 5215.71 855.046 5204.28 862.736 5196.84L867.704 5192.04C869.019 5190.77 870.436 5189.61 871.939 5188.58L892.059 5174.8L912.866 5161.9C914.255 5161.04 915.706 5160.28 917.205 5159.64L925.863 5155.95C935.931 5151.66 947.477 5153.73 955.415 5161.24C957.141 5162.87 958.654 5164.72 959.917 5166.75L967.091 5178.27C968.436 5180.43 969.099 5182.96 968.99 5185.53C968.836 5189.16 967.155 5192.56 964.377 5194.86L955.791 5201.97L946.539 5208C944.773 5209.16 942.86 5210.05 940.855 5210.66L940.47 5210.78C938.376 5211.42 936.197 5211.7 934.02 5211.62C929.959 5211.47 925.94 5212.6 922.503 5214.84L920.594 5216.08L917.134 5218.34C913.761 5220.54 911.084 5223.69 909.432 5227.4C908.389 5229.75 906.932 5231.88 905.133 5233.7L903.781 5235.06C902.232 5236.62 900.525 5238.01 898.69 5239.21L891.787 5243.71L883.481 5247.68C880.388 5249.16 876.867 5249.39 873.64 5248.31C870.733 5247.34 868.252 5245.37 866.615 5242.74L858.61 5229.89C857.777 5228.55 857.066 5227.14 856.486 5225.66Z" fill="black" stroke="black" stroke-width="3.32757"/>
<path d="M1130.06 3901.22C1119.26 3901.22 1109.5 3899.4 1100.79 3895.75C1092.07 3891.98 1084.59 3886.84 1078.35 3880.34C1072.23 3873.83 1067.49 3866.29 1064.1 3857.7C1060.72 3849.12 1059.03 3839.95 1059.03 3830.19C1059.03 3820.57 1060.72 3811.46 1064.1 3802.88C1067.49 3794.29 1072.23 3786.75 1078.35 3780.24C1084.59 3773.74 1092.07 3768.66 1100.79 3765.02C1109.5 3761.38 1119.26 3759.56 1130.06 3759.56C1140.85 3759.56 1150.61 3761.38 1159.32 3765.02C1168.04 3768.66 1175.45 3773.74 1181.57 3780.24C1187.81 3786.75 1192.62 3794.29 1196.01 3802.88C1199.39 3811.46 1201.08 3820.63 1201.08 3830.39C1201.08 3840.01 1199.39 3849.12 1196.01 3857.7C1192.62 3866.29 1187.81 3873.83 1181.57 3880.34C1175.45 3886.84 1168.04 3891.98 1159.32 3895.75C1150.61 3899.4 1140.85 3901.22 1130.06 3901.22ZM1130.06 3884.63C1137.47 3884.63 1144.36 3883.27 1150.74 3880.53C1157.11 3877.8 1162.64 3873.96 1167.32 3869.02C1172.14 3864.08 1175.84 3858.35 1178.45 3851.85C1181.05 3845.22 1182.35 3838 1182.35 3830.19C1182.35 3822.52 1181.05 3815.36 1178.45 3808.73C1175.84 3802.09 1172.2 3796.37 1167.52 3791.56C1162.84 3786.62 1157.24 3782.84 1150.74 3780.24C1144.36 3777.51 1137.47 3776.14 1130.06 3776.14C1122.51 3776.14 1115.55 3777.51 1109.18 3780.24C1102.8 3782.84 1097.27 3786.62 1092.59 3791.56C1087.91 3796.37 1084.27 3802.09 1081.67 3808.73C1079.06 3815.36 1077.76 3822.58 1077.76 3830.39C1077.76 3838.06 1079.06 3845.22 1081.67 3851.85C1084.27 3858.35 1087.91 3864.08 1092.59 3869.02C1097.27 3873.96 1102.8 3877.8 1109.18 3880.53C1115.55 3883.27 1122.51 3884.63 1130.06 3884.63Z" fill="url(#paint0_linear_191_469)"/>
<path d="M770.365 3903.96C765.812 3903.96 761.78 3902.79 758.268 3900.45C754.755 3897.98 751.894 3894.01 749.682 3888.55L705 3765.04H725.487L765.097 3880.94C766.007 3883.15 766.853 3884.65 767.633 3885.43C768.414 3886.21 769.325 3886.6 770.365 3886.6C771.666 3886.6 772.642 3886.21 773.292 3885.43C774.072 3884.65 774.918 3883.15 775.829 3880.94L816.219 3765.04H835.926L791.243 3888.55C789.292 3893.88 786.495 3897.78 782.853 3900.26C779.211 3902.73 775.048 3903.96 770.365 3903.96Z" fill="url(#paint1_linear_191_469)"/>
<path d="M950.06 3903.96C945.508 3903.96 941.475 3902.79 937.963 3900.45C934.451 3897.98 931.589 3894.01 929.378 3888.55L884.695 3765.04H905.183L944.792 3880.94C945.703 3883.15 946.548 3884.65 947.329 3885.43C948.109 3886.21 949.02 3886.6 950.06 3886.6C951.361 3886.6 952.337 3886.21 952.987 3885.43C953.768 3884.65 954.613 3883.15 955.524 3880.94L995.914 3765.04H1015.62L970.938 3888.55C968.987 3893.88 966.19 3897.78 962.548 3900.26C958.906 3902.73 954.743 3903.96 950.06 3903.96Z" fill="url(#paint2_linear_191_469)"/>
<path d="M1035.41 3902.94V3763.63" stroke="url(#paint3_linear_191_469)" stroke-width="18.6046"/>
<path d="M1212.24 3901.18V3764.59H1272.14C1280.72 3764.59 1288.53 3766.48 1295.55 3770.25C1302.58 3773.89 1308.17 3779.1 1312.33 3785.86C1316.5 3792.49 1318.58 3800.3 1318.58 3809.27C1318.58 3818.38 1316.23 3826.44 1311.55 3833.47C1307 3840.36 1300.82 3845.5 1293.02 3848.88L1307.65 3878.54C1308.69 3880.62 1309.8 3882.18 1310.97 3883.22C1312.27 3884.14 1314.09 3884.59 1316.43 3884.59H1326.19V3901.18H1313.5C1308.43 3901.18 1303.94 3899.87 1300.04 3897.27C1296.27 3894.67 1293.15 3891.16 1290.67 3886.74L1274.28 3853.37C1272.98 3853.5 1271.55 3853.63 1269.99 3853.76C1268.56 3853.76 1267.06 3853.76 1265.5 3853.76H1230.97V3901.18H1212.24ZM1230.97 3837.18H1269.6C1275.19 3837.18 1280.27 3836.07 1284.82 3833.86C1289.5 3831.65 1293.15 3828.46 1295.75 3824.3C1298.48 3820.14 1299.84 3815.13 1299.84 3809.27C1299.84 3803.29 1298.48 3798.22 1295.75 3794.05C1293.02 3789.89 1289.37 3786.7 1284.82 3784.49C1280.27 3782.28 1275.26 3781.18 1269.8 3781.18H1230.97V3837.18Z" fill="url(#paint4_linear_191_469)"/>
<path d="M860.25 3902.94V3763.63" stroke="url(#paint5_linear_191_469)" stroke-width="18.6046"/>
<path d="M825.616 3859.74L766.299 3864.81L732.72 3864.81L722.965 3869.77L712.753 3875.24L697.78 3879.11L686.888 3880.91L673.048 3880.92L656.941 3879.11L642.193 3877.06L629.488 3873.66L617.217 3869.77L604.931 3865.35L584.33 3859.13L602.377 3857.5L617.217 3853.27L624.494 3849.38L629.488 3844.61L735.509 3839.2L818.638 3829.94L1340.07 3779.99L1342.13 3800.24L1343.77 3820.74L1343.78 3820.89L825.616 3859.74Z" fill="url(#paint6_linear_191_469)"/>
<path d="M1339.66 3780.02C1342.53 3779.77 1345.41 3780.06 1348.15 3780.86C1350.89 3781.66 1353.43 3782.96 1355.62 3784.69C1357.81 3786.42 1359.61 3788.53 1360.92 3790.92C1362.23 3793.31 1363.02 3795.92 1363.25 3798.61C1363.48 3801.29 1363.14 3804 1362.26 3806.57C1361.37 3809.15 1359.95 3811.54 1358.09 3813.61C1356.22 3815.69 1353.94 3817.4 1351.38 3818.65C1348.81 3819.91 1346.02 3820.68 1343.15 3820.92L1341.4 3800.47L1339.66 3780.02Z" fill="url(#paint7_linear_191_469)"/>
<path d="M665.263 3858.38C665.65 3854.99 668.071 3852.18 671.367 3851.3L674.519 3850.46C675.119 3850.3 675.729 3850.18 676.346 3850.11L685.183 3849.13L694.925 3848.45L699.974 3848.78C703.477 3849.01 706.533 3851.24 707.817 3854.51C708.131 3855.31 708.33 3856.15 708.408 3857.01L708.777 3861.08C708.861 3862 708.634 3862.93 708.133 3863.71C707.517 3864.67 706.534 3865.34 705.413 3865.56L701.207 3866.37L697.19 3866.74C696.449 3866.81 695.702 3866.78 694.967 3866.66L694.786 3866.63C694.015 3866.51 693.267 3866.26 692.569 3865.91C691.289 3865.27 689.854 3865 688.428 3865.13L687.513 3865.21L685.941 3865.35C684.536 3865.48 683.19 3865.98 682.041 3866.8C681.308 3867.32 680.49 3867.72 679.624 3867.97L678.916 3868.17C678.17 3868.39 677.405 3868.53 676.632 3868.6L673.631 3868.87L670.045 3868.78C668.956 3868.75 667.915 3868.33 667.111 3867.59C666.279 3866.83 665.761 3865.78 665.659 3864.66L665.244 3860.07C665.193 3859.51 665.199 3858.94 665.263 3858.38Z" fill="black" stroke="black" stroke-width="1.26691"/>
<path d="M1130.02 3901.35C1111.06 3901.35 1092.88 3895.54 1079.48 3881.97C1064.34 3866.64 1059.46 3848.62 1059.46 3829.43C1058.55 3809.23 1069.88 3789.91 1083.28 3776.34C1098.48 3763.86 1115.95 3760 1131.83 3760V3776.34C1118.22 3776.34 1104.83 3779.74 1093.94 3790.18C1083.05 3800.61 1077.61 3813.31 1077.61 3828.52C1077.15 3842.59 1080.78 3856.65 1092.58 3869.81C1102.67 3881.07 1115 3885.47 1130.02 3885.47V3901.35Z" fill="url(#paint8_linear_191_469)"/>
<path d="M1249.24 3765.01C1268.2 3765.18 1282.71 3762.72 1297.24 3771.8C1312.02 3781.04 1314.48 3788.14 1316.98 3797.21C1318.34 3804.7 1319.62 3813.77 1315.61 3825.8C1313.57 3831.92 1307.67 3840.77 1299.05 3845.99L1285.44 3834.19C1293.83 3828.75 1295.65 3825.8 1297.91 3820.81C1300.18 3815.81 1300.18 3808.1 1299.5 3804.7C1297.91 3796.76 1296.78 3793.13 1285.44 3785.19C1276.23 3778.73 1264.61 3781.69 1249.59 3781.56L1249.24 3765.01Z" fill="url(#paint9_linear_191_469)"/>
<path d="M732.062 3838.95L750.213 3836.91L764.507 3878.88L746.583 3879.34L732.062 3838.95Z" fill="url(#paint10_linear_191_469)"/>
<rect x="2867" y="3532" width="2198" height="2117" rx="95" fill="white" stroke="#0058A8" stroke-width="10"/>
<path d="M3639.16 5026.41L3501.06 5115.36L3418.8 5157.81L3401.93 5183.77L3384.69 5211.75L3353.5 5241.31L3329.38 5260.06L3295.48 5277.56L3253.46 5292.96L3214.43 5305.97L3178.47 5312.68L3142.88 5317.48L3106.51 5320.86L3047.22 5329.81L3089.11 5302.49L3119.47 5272.11L3131.76 5252.19L3137.23 5232.77L3389.26 5083.83L3579.76 4953.25L4786.22 4156.58L4819.98 4209.67L4853.12 4264L4853.35 4264.39L3639.16 5026.41Z" fill="#B6DFF2"/>
<path d="M4785.27 4157.16C4791.95 4152.85 4799.43 4149.99 4807.28 4148.74C4815.12 4147.48 4823.19 4147.85 4831 4149.83C4838.82 4151.8 4846.24 4155.35 4852.84 4160.26C4859.44 4165.17 4865.09 4171.36 4869.46 4178.46C4873.84 4185.55 4876.85 4193.43 4878.34 4201.63C4879.82 4209.84 4879.75 4218.21 4878.12 4226.27C4876.49 4234.33 4873.33 4241.93 4868.83 4248.62C4864.33 4255.31 4858.58 4260.96 4851.9 4265.27L4818.58 4211.21L4785.27 4157.16Z" fill="#B6DFF2"/>
<path d="M3244.51 5225.65C3240.59 5215.7 3243.07 5204.26 3250.76 5196.82L3255.73 5192.02C3257.04 5190.75 3258.46 5189.59 3259.96 5188.56L3280.08 5174.79L3300.89 5161.88C3302.28 5161.02 3303.73 5160.27 3305.23 5159.63L3313.89 5155.94C3323.95 5151.65 3335.5 5153.71 3343.44 5161.22C3345.17 5162.85 3346.68 5164.71 3347.94 5166.73L3355.12 5178.25C3356.46 5180.42 3357.12 5182.95 3357.01 5185.52C3356.86 5189.15 3355.18 5192.55 3352.4 5194.85L3343.82 5201.96L3334.56 5207.99C3332.8 5209.14 3330.88 5210.04 3328.88 5210.65L3328.49 5210.77C3326.4 5211.4 3324.22 5211.69 3322.04 5211.61C3317.98 5211.46 3313.96 5212.58 3310.53 5214.82L3308.62 5216.07L3305.16 5218.32C3301.79 5220.52 3299.11 5223.67 3297.46 5227.39C3296.41 5229.73 3294.96 5231.87 3293.16 5233.68L3291.81 5235.04C3290.26 5236.6 3288.55 5238 3286.71 5239.19L3279.81 5243.69L3271.51 5247.67C3268.41 5249.15 3264.89 5249.37 3261.66 5248.29C3258.76 5247.32 3256.28 5245.36 3254.64 5242.73L3246.63 5229.87C3245.8 5228.54 3245.09 5227.12 3244.51 5225.65Z" fill="white" stroke="#0058A8" stroke-opacity="0.07" stroke-width="3.32757"/>
<path d="M3516.34 3829.17C3505.69 3829.17 3496.07 3827.37 3487.48 3823.78C3478.89 3820.06 3471.52 3815 3465.36 3808.58C3459.33 3802.17 3454.65 3794.73 3451.32 3786.27C3447.98 3777.8 3446.31 3768.76 3446.31 3759.14C3446.31 3749.65 3447.98 3740.68 3451.32 3732.21C3454.65 3723.75 3459.33 3716.31 3465.36 3709.9C3471.52 3703.48 3478.89 3698.48 3487.48 3694.89C3496.07 3691.3 3505.69 3689.51 3516.34 3689.51C3526.98 3689.51 3536.6 3691.3 3545.19 3694.89C3553.79 3698.48 3561.1 3703.48 3567.13 3709.9C3573.28 3716.31 3578.03 3723.75 3581.36 3732.21C3584.7 3740.68 3586.36 3749.72 3586.36 3759.34C3586.36 3768.83 3584.7 3777.8 3581.36 3786.27C3578.03 3794.73 3573.28 3802.17 3567.13 3808.58C3561.1 3815 3553.79 3820.06 3545.19 3823.78C3536.6 3827.37 3526.98 3829.17 3516.34 3829.17ZM3516.34 3812.82C3523.65 3812.82 3530.45 3811.47 3536.73 3808.78C3543.01 3806.08 3548.46 3802.3 3553.08 3797.43C3557.83 3792.55 3561.48 3786.91 3564.05 3780.5C3566.61 3773.96 3567.89 3766.84 3567.89 3759.14C3567.89 3751.58 3566.61 3744.52 3564.05 3737.98C3561.48 3731.44 3557.89 3725.8 3553.27 3721.05C3548.66 3716.18 3543.14 3712.46 3536.73 3709.9C3530.45 3707.2 3523.65 3705.86 3516.34 3705.86C3508.9 3705.86 3502.04 3707.2 3495.75 3709.9C3489.47 3712.46 3484.02 3716.18 3479.4 3721.05C3474.79 3725.8 3471.19 3731.44 3468.63 3737.98C3466.06 3744.52 3464.78 3751.64 3464.78 3759.34C3464.78 3766.9 3466.06 3773.96 3468.63 3780.5C3471.19 3786.91 3474.79 3792.55 3479.4 3797.43C3484.02 3802.3 3489.47 3806.08 3495.75 3808.78C3502.04 3811.47 3508.9 3812.82 3516.34 3812.82Z" fill="url(#paint11_linear_191_469)"/>
<path d="M3161.71 3831.81C3157.22 3831.81 3153.25 3830.66 3149.79 3828.35C3146.32 3825.91 3143.5 3822 3141.32 3816.61L3097.27 3694.84H3117.47L3156.52 3809.11C3157.42 3811.29 3158.25 3812.77 3159.02 3813.54C3159.79 3814.31 3160.69 3814.69 3161.71 3814.69C3163 3814.69 3163.96 3814.31 3164.6 3813.54C3165.37 3812.77 3166.2 3811.29 3167.1 3809.11L3206.92 3694.84H3226.35L3182.3 3816.61C3180.37 3821.87 3177.62 3825.72 3174.02 3828.16C3170.43 3830.59 3166.33 3831.81 3161.71 3831.81Z" fill="url(#paint12_linear_191_469)"/>
<path d="M3338.87 3831.81C3334.38 3831.81 3330.4 3830.66 3326.94 3828.35C3323.48 3825.91 3320.66 3822 3318.48 3816.61L3274.42 3694.84H3294.62L3333.68 3809.11C3334.57 3811.29 3335.41 3812.77 3336.18 3813.54C3336.95 3814.31 3337.84 3814.69 3338.87 3814.69C3340.15 3814.69 3341.11 3814.31 3341.75 3813.54C3342.52 3812.77 3343.36 3811.29 3344.26 3809.11L3384.08 3694.84H3403.51L3359.45 3816.61C3357.53 3821.87 3354.77 3825.72 3351.18 3828.16C3347.59 3830.59 3343.49 3831.81 3338.87 3831.81Z" fill="url(#paint13_linear_191_469)"/>
<path d="M3423.02 3830.92V3693.58" stroke="url(#paint14_linear_191_469)" stroke-width="18.3427"/>
<path d="M3597.36 3829.13V3694.47H3656.42C3664.89 3694.47 3672.58 3696.33 3679.51 3700.05C3686.43 3703.64 3691.95 3708.77 3696.05 3715.44C3700.15 3721.98 3702.21 3729.67 3702.21 3738.52C3702.21 3747.5 3699.9 3755.45 3695.28 3762.38C3690.79 3769.17 3684.7 3774.24 3677.01 3777.57L3691.43 3806.81C3692.46 3808.87 3693.55 3810.4 3694.7 3811.43C3695.99 3812.33 3697.78 3812.78 3700.09 3812.78H3709.71V3829.13H3697.2C3692.2 3829.13 3687.78 3827.85 3683.93 3825.28C3680.21 3822.72 3677.13 3819.25 3674.7 3814.89L3658.54 3782C3657.26 3782.13 3655.84 3782.25 3654.31 3782.38C3652.89 3782.38 3651.42 3782.38 3649.88 3782.38H3615.83V3829.13H3597.36ZM3615.83 3766.03H3653.92C3659.44 3766.03 3664.44 3764.94 3668.93 3762.76C3673.54 3760.58 3677.13 3757.44 3679.7 3753.33C3682.39 3749.23 3683.74 3744.29 3683.74 3738.52C3683.74 3732.62 3682.39 3727.62 3679.7 3723.52C3677.01 3719.41 3673.41 3716.27 3668.93 3714.09C3664.44 3711.91 3659.5 3710.82 3654.11 3710.82H3615.83V3766.03Z" fill="url(#paint15_linear_191_469)"/>
<path d="M3250.34 3830.93V3693.58" stroke="url(#paint16_linear_191_469)" stroke-width="18.3427"/>
<path d="M3216.22 3788.34L3157.73 3793.34L3124.63 3793.34L3115.01 3798.22L3104.94 3803.62L3090.18 3807.43L3079.44 3809.22L3065.8 3809.22L3049.92 3807.44L3035.38 3805.42L3022.85 3802.06L3010.75 3798.22L2998.64 3793.87L2978.33 3787.74L2996.12 3786.13L3010.75 3781.96L3017.93 3778.12L3022.85 3773.42L3127.38 3768.09L3209.34 3758.96L3723.43 3709.71L3725.46 3729.67L3727.08 3749.89L3727.09 3750.03L3216.22 3788.34Z" fill="url(#paint17_linear_191_469)"/>
<path d="M3723.02 3709.74C3725.85 3709.5 3728.7 3709.78 3731.4 3710.57C3734.1 3711.36 3736.6 3712.64 3738.76 3714.35C3740.92 3716.05 3742.7 3718.14 3743.99 3720.49C3745.28 3722.84 3746.06 3725.42 3746.29 3728.07C3746.51 3730.71 3746.18 3733.38 3745.31 3735.92C3744.43 3738.46 3743.03 3740.82 3741.19 3742.86C3739.35 3744.91 3737.11 3746.59 3734.58 3747.83C3732.05 3749.07 3729.29 3749.83 3726.47 3750.07L3724.74 3729.9L3723.02 3709.74Z" fill="url(#paint18_linear_191_469)"/>
<path d="M3058.13 3787C3058.51 3783.66 3060.9 3780.89 3064.15 3780.02L3067.25 3779.19C3067.84 3779.03 3068.45 3778.92 3069.05 3778.85L3077.77 3777.88L3087.37 3777.21L3092.35 3777.53C3095.8 3777.76 3098.82 3779.96 3100.08 3783.18C3100.39 3783.97 3100.59 3784.8 3100.66 3785.65L3101.03 3789.66C3101.11 3790.57 3100.89 3791.48 3100.39 3792.25C3099.79 3793.2 3098.82 3793.86 3097.71 3794.07L3093.56 3794.88L3089.6 3795.24C3088.87 3795.31 3088.14 3795.28 3087.41 3795.16L3087.23 3795.13C3086.47 3795.01 3085.74 3794.77 3085.05 3794.43C3083.79 3793.79 3082.37 3793.52 3080.97 3793.65L3080.06 3793.73L3078.51 3793.87C3077.13 3794 3075.8 3794.49 3074.67 3795.3C3073.95 3795.82 3073.14 3796.21 3072.29 3796.45L3071.59 3796.65C3070.85 3796.87 3070.1 3797.01 3069.34 3797.08L3066.38 3797.34L3062.84 3797.25C3061.77 3797.22 3060.74 3796.81 3059.95 3796.08C3059.13 3795.33 3058.62 3794.3 3058.52 3793.19L3058.11 3788.67C3058.06 3788.11 3058.06 3787.56 3058.13 3787Z" fill="white" stroke="white" stroke-width="1.24907"/>
<path d="M3516.3 3829.36C3497.61 3829.36 3479.69 3823.63 3466.47 3810.25C3451.55 3795.13 3446.73 3777.37 3446.73 3758.45C3445.83 3738.54 3457 3719.49 3470.22 3706.11C3485.2 3693.8 3502.43 3690 3518.09 3690V3706.11C3504.66 3706.11 3491.47 3709.46 3480.73 3719.75C3469.99 3730.04 3464.62 3742.56 3464.62 3757.55C3464.18 3771.42 3467.76 3785.29 3479.39 3798.27C3489.34 3809.36 3501.49 3813.7 3516.3 3813.7V3829.36Z" fill="url(#paint19_linear_191_469)"/>
<path d="M3633.85 3694.94C3652.54 3695.1 3666.85 3692.68 3681.17 3701.63C3695.75 3710.74 3698.17 3717.74 3700.63 3726.68C3701.97 3734.07 3703.24 3743.01 3699.29 3754.87C3697.27 3760.91 3691.46 3769.63 3682.96 3774.78L3669.54 3763.15C3677.81 3757.78 3679.6 3754.87 3681.84 3749.95C3684.08 3745.03 3684.08 3737.42 3683.4 3734.07C3681.84 3726.24 3680.72 3722.66 3669.54 3714.83C3660.45 3708.47 3649 3711.38 3634.2 3711.25L3633.85 3694.94Z" fill="url(#paint20_linear_191_469)"/>
<path d="M3123.95 3767.84L3141.85 3765.83L3155.94 3807.21L3138.27 3807.66L3131.11 3787.75L3123.95 3767.84Z" fill="url(#paint21_linear_191_469)"/>
<path d="M568.283 827H485.896L611.429 463.364H710.506L835.861 827H753.474L662.388 546.46H659.547L568.283 827ZM563.134 684.067H757.736V744.081H563.134V684.067ZM1098.78 632.043L1029.53 636.304C1028.35 630.385 1025.8 625.059 1021.9 620.324C1017.99 615.471 1012.84 611.624 1006.45 608.783C1000.17 605.823 992.658 604.344 983.899 604.344C972.18 604.344 962.296 606.83 954.247 611.801C946.198 616.654 942.173 623.165 942.173 631.332C942.173 637.843 944.777 643.347 949.985 647.845C955.194 652.343 964.131 655.954 976.797 658.676L1026.16 668.619C1052.67 674.064 1072.44 682.824 1085.46 694.898C1098.48 706.972 1104.99 722.833 1104.99 742.483C1104.99 760.357 1099.73 776.041 1089.19 789.536C1078.77 803.03 1064.45 813.565 1046.22 821.141C1028.11 828.598 1007.22 832.327 983.544 832.327C947.44 832.327 918.676 824.81 897.251 809.777C875.944 794.625 863.456 774.029 859.787 747.987L934.183 744.081C936.432 755.089 941.877 763.494 950.518 769.294C959.159 774.976 970.227 777.817 983.721 777.817C996.979 777.817 1007.63 775.272 1015.68 770.182C1023.85 764.973 1027.99 758.286 1028.11 750.118C1027.99 743.252 1025.09 737.63 1019.41 733.25C1013.73 728.752 1004.97 725.319 993.132 722.952L945.902 713.541C919.268 708.214 899.441 698.982 886.42 685.842C873.518 672.703 867.066 655.954 867.066 635.594C867.066 618.075 871.801 602.982 881.271 590.317C890.859 577.651 904.294 567.885 921.576 561.02C938.977 554.154 959.337 550.722 982.656 550.722C1017.1 550.722 1044.21 558.001 1063.98 572.561C1083.86 587.121 1095.46 606.948 1098.78 632.043ZM1379.54 632.043L1310.29 636.304C1309.11 630.385 1306.56 625.059 1302.66 620.324C1298.75 615.471 1293.6 611.624 1287.21 608.783C1280.94 605.823 1273.42 604.344 1264.66 604.344C1252.94 604.344 1243.06 606.83 1235.01 611.801C1226.96 616.654 1222.93 623.165 1222.93 631.332C1222.93 637.843 1225.54 643.347 1230.75 647.845C1235.96 652.343 1244.89 655.954 1257.56 658.676L1306.92 668.619C1333.43 674.064 1353.2 682.824 1366.22 694.898C1379.24 706.972 1385.75 722.833 1385.75 742.483C1385.75 760.357 1380.49 776.041 1369.95 789.536C1359.54 803.03 1345.21 813.565 1326.98 821.141C1308.87 828.598 1287.98 832.327 1264.31 832.327C1228.2 832.327 1199.44 824.81 1178.01 809.777C1156.71 794.625 1144.22 774.029 1140.55 747.987L1214.94 744.081C1217.19 755.089 1222.64 763.494 1231.28 769.294C1239.92 774.976 1250.99 777.817 1264.48 777.817C1277.74 777.817 1288.39 775.272 1296.44 770.182C1304.61 764.973 1308.75 758.286 1308.87 750.118C1308.75 743.252 1305.85 737.63 1300.17 733.25C1294.49 728.752 1285.73 725.319 1273.89 722.952L1226.66 713.541C1200.03 708.214 1180.2 698.982 1167.18 685.842C1154.28 672.703 1147.83 655.954 1147.83 635.594C1147.83 618.075 1152.56 602.982 1162.03 590.317C1171.62 577.651 1185.06 567.885 1202.34 561.02C1219.74 554.154 1240.1 550.722 1263.42 550.722C1297.86 550.722 1324.97 558.001 1344.74 572.561C1364.63 587.121 1376.23 606.948 1379.54 632.043ZM1557.67 832.327C1529.62 832.327 1505.47 826.645 1485.23 815.281C1465.11 803.799 1449.6 787.582 1438.71 766.631C1427.82 745.561 1422.38 720.643 1422.38 691.879C1422.38 663.825 1427.82 639.204 1438.71 618.016C1449.6 596.827 1464.93 580.314 1484.7 568.477C1504.58 556.64 1527.9 550.722 1554.66 550.722C1572.65 550.722 1589.4 553.622 1604.9 559.422C1620.53 565.104 1634.14 573.686 1645.74 585.168C1657.46 596.65 1666.58 611.091 1673.09 628.491C1679.6 645.774 1682.85 666.015 1682.85 689.216V709.99H1452.56V663.115H1611.65C1611.65 652.225 1609.28 642.578 1604.55 634.173C1599.81 625.769 1593.24 619.199 1584.84 614.464C1576.55 609.611 1566.91 607.185 1555.9 607.185C1544.42 607.185 1534.24 609.848 1525.36 615.175C1516.6 620.383 1509.73 627.426 1504.76 636.304C1499.79 645.063 1497.25 654.829 1497.13 665.601V710.168C1497.13 723.662 1499.61 735.321 1504.58 745.146C1509.67 754.971 1516.84 762.547 1526.07 767.874C1535.3 773.2 1546.25 775.864 1558.92 775.864C1567.32 775.864 1575.02 774.68 1582 772.312C1588.98 769.945 1594.96 766.394 1599.93 761.659C1604.9 756.924 1608.69 751.124 1611.3 744.259L1681.25 748.875C1677.7 765.684 1670.42 780.362 1659.41 792.909C1648.52 805.338 1634.44 815.045 1617.16 822.028C1599.99 828.894 1580.16 832.327 1557.67 832.327ZM1959.13 632.043L1889.88 636.304C1888.7 630.385 1886.15 625.059 1882.25 620.324C1878.34 615.471 1873.19 611.624 1866.8 608.783C1860.53 605.823 1853.01 604.344 1844.25 604.344C1832.53 604.344 1822.65 606.83 1814.6 611.801C1806.55 616.654 1802.52 623.165 1802.52 631.332C1802.52 637.843 1805.13 643.347 1810.34 647.845C1815.55 652.343 1824.48 655.954 1837.15 658.676L1886.51 668.619C1913.02 674.064 1932.79 682.824 1945.81 694.898C1958.83 706.972 1965.34 722.833 1965.34 742.483C1965.34 760.357 1960.08 776.041 1949.54 789.536C1939.12 803.03 1924.8 813.565 1906.57 821.141C1888.46 828.598 1867.57 832.327 1843.9 832.327C1807.79 832.327 1779.03 824.81 1757.6 809.777C1736.3 794.625 1723.81 774.029 1720.14 747.987L1794.53 744.081C1796.78 755.089 1802.23 763.494 1810.87 769.294C1819.51 774.976 1830.58 777.817 1844.07 777.817C1857.33 777.817 1867.98 775.272 1876.03 770.182C1884.2 764.973 1888.34 758.286 1888.46 750.118C1888.34 743.252 1885.44 737.63 1879.76 733.25C1874.08 728.752 1865.32 725.319 1853.48 722.952L1806.25 713.541C1779.62 708.214 1759.79 698.982 1746.77 685.842C1733.87 672.703 1727.42 655.954 1727.42 635.594C1727.42 618.075 1732.15 602.982 1741.62 590.317C1751.21 577.651 1764.65 567.885 1781.93 561.02C1799.33 554.154 1819.69 550.722 1843.01 550.722C1877.45 550.722 1904.56 558.001 1924.33 572.561C1944.21 587.121 1955.82 606.948 1959.13 632.043ZM2158.04 554.273V611.091H1993.8V554.273H2158.04ZM2031.08 488.932H2106.72V743.193C2106.72 750.177 2107.79 755.622 2109.92 759.528C2112.05 763.316 2115.01 765.98 2118.8 767.518C2122.7 769.057 2127.2 769.827 2132.29 769.827C2135.84 769.827 2139.39 769.531 2142.95 768.939C2146.5 768.229 2149.22 767.696 2151.11 767.341L2163.01 823.626C2159.22 824.81 2153.89 826.171 2147.03 827.71C2140.16 829.367 2131.82 830.374 2121.99 830.729C2103.76 831.439 2087.78 829.012 2074.05 823.449C2060.44 817.885 2049.85 809.244 2042.27 797.526C2034.69 785.807 2030.97 771.01 2031.08 753.136V488.932ZM2430.81 632.043L2361.56 636.304C2360.38 630.385 2357.83 625.059 2353.93 620.324C2350.02 615.471 2344.87 611.624 2338.48 608.783C2332.21 605.823 2324.69 604.344 2315.93 604.344C2304.21 604.344 2294.33 606.83 2286.28 611.801C2278.23 616.654 2274.2 623.165 2274.2 631.332C2274.2 637.843 2276.81 643.347 2282.02 647.845C2287.23 652.343 2296.16 655.954 2308.83 658.676L2358.19 668.619C2384.7 674.064 2404.47 682.824 2417.49 694.898C2430.51 706.972 2437.02 722.833 2437.02 742.483C2437.02 760.357 2431.76 776.041 2421.22 789.536C2410.8 803.03 2396.48 813.565 2378.25 821.141C2360.14 828.598 2339.25 832.327 2315.57 832.327C2279.47 832.327 2250.71 824.81 2229.28 809.777C2207.98 794.625 2195.49 774.029 2191.82 747.987L2266.21 744.081C2268.46 755.089 2273.91 763.494 2282.55 769.294C2291.19 774.976 2302.26 777.817 2315.75 777.817C2329.01 777.817 2339.66 775.272 2347.71 770.182C2355.88 764.973 2360.02 758.286 2360.14 750.118C2360.02 743.252 2357.12 737.63 2351.44 733.25C2345.76 728.752 2337 725.319 2325.16 722.952L2277.93 713.541C2251.3 708.214 2231.47 698.982 2218.45 685.842C2205.55 672.703 2199.1 655.954 2199.1 635.594C2199.1 618.075 2203.83 602.982 2213.3 590.317C2222.89 577.651 2236.33 567.885 2253.61 561.02C2271.01 554.154 2291.37 550.722 2314.69 550.722C2349.13 550.722 2376.24 558.001 2396.01 572.561C2415.89 587.121 2427.49 606.948 2430.81 632.043Z" fill="white"/>
<mask id="mask0_191_469" style="mask-type:alpha" maskUnits="userSpaceOnUse" x="474" y="1151" width="2208" height="2127">
<rect x="475" y="1152" width="2206" height="2125" rx="99" fill="black" stroke="white" stroke-width="2"/>
</mask>
<g mask="url(#mask0_191_469)">
<rect x="479" y="1156" width="2198" height="2117" rx="95" fill="black" stroke="#0058A8" stroke-width="10"/>
<path d="M167.142 2628.66L2714.5 1683L2776.5 1765.5L143 2747.07L167.142 2628.66Z" fill="url(#paint22_linear_191_469)"/>
<path d="M253.142 2776.66L2800.5 1831L2862.5 1913.5L229 2895.07L253.142 2776.66Z" fill="url(#paint23_linear_191_469)"/>
<path d="M1079.84 1432.88C1070.19 1432.88 1061.47 1431.25 1053.68 1427.99C1045.9 1424.62 1039.21 1420.03 1033.63 1414.22C1028.17 1408.41 1023.93 1401.67 1020.9 1393.99C1017.88 1386.32 1016.37 1378.13 1016.37 1369.41C1016.37 1360.81 1017.88 1352.67 1020.9 1345C1023.93 1337.33 1028.17 1330.58 1033.63 1324.77C1039.21 1318.96 1045.9 1314.43 1053.68 1311.17C1061.47 1307.92 1070.19 1306.29 1079.84 1306.29C1089.49 1306.29 1098.2 1307.92 1105.99 1311.17C1113.78 1314.43 1120.4 1318.96 1125.87 1324.77C1131.45 1330.58 1135.75 1337.33 1138.77 1345C1141.79 1352.67 1143.3 1360.87 1143.3 1369.58C1143.3 1378.19 1141.79 1386.32 1138.77 1393.99C1135.75 1401.67 1131.45 1408.41 1125.87 1414.22C1120.4 1420.03 1113.78 1424.62 1105.99 1427.99C1098.2 1431.25 1089.49 1432.88 1079.84 1432.88ZM1079.84 1418.06C1086.46 1418.06 1092.62 1416.83 1098.32 1414.39C1104.02 1411.95 1108.96 1408.52 1113.14 1404.11C1117.44 1399.69 1120.75 1394.57 1123.08 1388.76C1125.4 1382.83 1126.57 1376.38 1126.57 1369.41C1126.57 1362.55 1125.4 1356.16 1123.08 1350.23C1120.75 1344.3 1117.5 1339.19 1113.31 1334.89C1109.13 1330.47 1104.13 1327.1 1098.32 1324.77C1092.62 1322.33 1086.46 1321.11 1079.84 1321.11C1073.1 1321.11 1066.88 1322.33 1061.18 1324.77C1055.48 1327.1 1050.54 1330.47 1046.36 1334.89C1042.18 1339.19 1038.92 1344.3 1036.6 1350.23C1034.27 1356.16 1033.11 1362.61 1033.11 1369.58C1033.11 1376.44 1034.27 1382.83 1036.6 1388.76C1038.92 1394.57 1042.18 1399.69 1046.36 1404.11C1050.54 1408.52 1055.48 1411.95 1061.18 1414.39C1066.88 1416.83 1073.1 1418.06 1079.84 1418.06Z" fill="url(#paint24_linear_191_469)"/>
<path d="M758.416 1433.8C754.347 1433.8 750.744 1432.75 747.605 1430.66C744.467 1428.45 741.91 1424.91 739.933 1420.02L700.005 1309.65H718.313L753.708 1413.22C754.522 1415.2 755.277 1416.54 755.975 1417.24C756.672 1417.93 757.486 1418.28 758.416 1418.28C759.578 1418.28 760.45 1417.93 761.031 1417.24C761.729 1416.54 762.484 1415.2 763.298 1413.22L799.39 1309.65H817.001L777.072 1420.02C775.329 1424.79 772.829 1428.28 769.575 1430.49C766.32 1432.7 762.6 1433.8 758.416 1433.8Z" fill="url(#paint25_linear_191_469)"/>
<path d="M918.994 1433.8C914.925 1433.8 911.322 1432.75 908.183 1430.66C905.045 1428.45 902.488 1424.91 900.512 1420.02L860.583 1309.65H878.891L914.286 1413.22C915.1 1415.2 915.855 1416.54 916.553 1417.24C917.25 1417.93 918.064 1418.28 918.994 1418.28C920.156 1418.28 921.028 1417.93 921.609 1417.24C922.307 1416.54 923.062 1415.2 923.876 1413.22L959.968 1309.65H977.579L937.65 1420.02C935.907 1424.79 933.408 1428.28 930.153 1430.49C926.898 1432.7 923.178 1433.8 918.994 1433.8Z" fill="url(#paint26_linear_191_469)"/>
<path d="M995.258 1433.73V1309.25" stroke="url(#paint27_linear_191_469)" stroke-width="16.6251"/>
<path d="M1153.27 1432.84V1310.79H1206.8C1214.48 1310.79 1221.45 1312.48 1227.73 1315.85C1234 1319.1 1239 1323.75 1242.72 1329.8C1246.44 1335.73 1248.3 1342.7 1248.3 1350.72C1248.3 1358.86 1246.21 1366.06 1242.02 1372.34C1237.96 1378.5 1232.43 1383.09 1225.46 1386.12L1238.54 1412.62C1239.47 1414.48 1240.45 1415.87 1241.5 1416.8C1242.66 1417.62 1244.29 1418.02 1246.38 1418.02H1255.1V1432.84H1243.77C1239.23 1432.84 1235.22 1431.68 1231.74 1429.36C1228.37 1427.03 1225.58 1423.89 1223.37 1419.94L1208.72 1390.13C1207.56 1390.24 1206.28 1390.36 1204.89 1390.47C1203.61 1390.47 1202.27 1390.47 1200.88 1390.47H1170.01V1432.84H1153.27ZM1170.01 1375.65H1204.54C1209.54 1375.65 1214.07 1374.67 1218.14 1372.69C1222.32 1370.71 1225.58 1367.87 1227.9 1364.15C1230.34 1360.43 1231.56 1355.95 1231.56 1350.72C1231.56 1345.37 1230.34 1340.84 1227.9 1337.12C1225.46 1333.4 1222.21 1330.55 1218.14 1328.58C1214.07 1326.6 1209.59 1325.61 1204.71 1325.61H1170.01V1375.65Z" fill="url(#paint28_linear_191_469)"/>
<path d="M838.742 1433.73V1309.25" stroke="url(#paint29_linear_191_469)" stroke-width="16.6251"/>
<path d="M807.798 1395.13L754.792 1399.66L724.786 1399.66L716.069 1404.09L706.943 1408.98L693.564 1412.43L683.83 1414.05L671.463 1414.05L657.07 1412.44L643.891 1410.61L632.538 1407.57L621.572 1404.09L610.594 1400.14L592.184 1394.59L608.311 1393.12L621.572 1389.35L628.076 1385.87L632.538 1381.61L727.278 1376.77L801.563 1368.5L1267.52 1323.86L1269.35 1341.95L1270.82 1360.28L1270.83 1360.41L807.798 1395.13Z" fill="url(#paint30_linear_191_469)"/>
<path d="M1267.16 1323.89C1269.73 1323.67 1272.3 1323.92 1274.75 1324.64C1277.2 1325.36 1279.47 1326.52 1281.42 1328.06C1283.38 1329.6 1284.99 1331.5 1286.16 1333.63C1287.33 1335.76 1288.04 1338.1 1288.25 1340.5C1288.45 1342.9 1288.15 1345.32 1287.36 1347.62C1286.56 1349.92 1285.3 1352.06 1283.63 1353.91C1281.96 1355.76 1279.92 1357.29 1277.63 1358.41C1275.34 1359.53 1272.84 1360.22 1270.28 1360.44L1268.72 1342.16L1267.16 1323.89Z" fill="url(#paint31_linear_191_469)"/>
<path d="M664.506 1393.91C664.851 1390.88 667.015 1388.37 669.96 1387.59L672.777 1386.83C673.313 1386.69 673.858 1386.58 674.409 1386.52L682.306 1385.65L691.011 1385.04L695.523 1385.33C698.654 1385.54 701.384 1387.53 702.532 1390.45C702.813 1391.17 702.991 1391.92 703.06 1392.68L703.39 1396.32C703.464 1397.15 703.262 1397.97 702.814 1398.67C702.263 1399.53 701.385 1400.13 700.384 1400.32L696.625 1401.05L693.036 1401.38C692.373 1401.44 691.706 1401.42 691.049 1401.31L690.887 1401.28C690.198 1401.17 689.53 1400.96 688.906 1400.64C687.762 1400.07 686.481 1399.82 685.206 1399.94L684.389 1400.01L682.984 1400.14C681.728 1400.26 680.525 1400.7 679.499 1401.43C678.843 1401.9 678.113 1402.26 677.338 1402.48L676.706 1402.66C676.039 1402.85 675.356 1402.98 674.665 1403.04L671.983 1403.29L668.778 1403.2C667.806 1403.17 666.875 1402.8 666.157 1402.14C665.414 1401.46 664.951 1400.53 664.86 1399.52L664.488 1395.42C664.443 1394.92 664.449 1394.42 664.506 1393.91Z" fill="black" stroke="black" stroke-width="1.13211"/>
<path d="M807.795 1395.13L754.79 1399.66L724.783 1399.66L716.066 1404.09L706.94 1408.98L693.561 1412.44L683.827 1414.05L671.46 1414.05L657.067 1412.44L643.888 1410.61L632.535 1407.57L621.569 1404.09L610.591 1400.14L592.181 1394.59L608.308 1393.13L621.569 1389.35L628.073 1385.87L632.535 1381.61L727.275 1376.77L801.56 1368.5L1267.51 1323.87L1269.35 1341.96L1270.82 1360.28L1270.83 1360.41L807.795 1395.13Z" fill="url(#paint32_linear_191_469)"/>
<path d="M1267.16 1323.89C1269.72 1323.67 1272.3 1323.92 1274.75 1324.64C1277.19 1325.36 1279.46 1326.52 1281.42 1328.06C1283.38 1329.6 1284.99 1331.5 1286.16 1333.63C1287.33 1335.76 1288.04 1338.1 1288.24 1340.5C1288.45 1342.9 1288.14 1345.32 1287.35 1347.62C1286.56 1349.92 1285.29 1352.06 1283.63 1353.91C1281.96 1355.76 1279.92 1357.29 1277.63 1358.41C1275.34 1359.53 1272.84 1360.22 1270.28 1360.44L1268.72 1342.16L1267.16 1323.89Z" fill="url(#paint33_linear_191_469)"/>
<path d="M664.501 1393.91C664.846 1390.89 667.01 1388.38 669.955 1387.59L672.772 1386.83C673.308 1386.69 673.853 1386.59 674.404 1386.53L682.301 1385.65L691.007 1385.04L695.519 1385.33C698.649 1385.54 701.379 1387.53 702.527 1390.45C702.808 1391.17 702.986 1391.92 703.055 1392.69L703.385 1396.32C703.46 1397.15 703.257 1397.98 702.809 1398.67C702.259 1399.53 701.38 1400.13 700.379 1400.32L696.62 1401.06L693.031 1401.38C692.368 1401.44 691.701 1401.42 691.044 1401.31L690.883 1401.28C690.193 1401.17 689.525 1400.96 688.902 1400.64C687.757 1400.07 686.476 1399.83 685.201 1399.94L684.384 1400.02L682.979 1400.14C681.723 1400.26 680.52 1400.7 679.494 1401.44C678.838 1401.9 678.108 1402.26 677.333 1402.48L676.701 1402.66C676.035 1402.85 675.351 1402.98 674.66 1403.05L671.979 1403.29L668.774 1403.2C667.801 1403.18 666.87 1402.8 666.152 1402.14C665.409 1401.46 664.946 1400.53 664.855 1399.52L664.484 1395.43C664.438 1394.92 664.444 1394.42 664.501 1393.91Z" fill="black" stroke="black" stroke-width="1.13211"/>
<path d="M1079.8 1432.31C1062.86 1432.31 1046.62 1427.12 1034.64 1414.99C1021.12 1401.29 1016.75 1385.19 1016.75 1368.04C1015.94 1350 1026.06 1332.73 1038.04 1320.6C1051.62 1309.45 1067.23 1306 1081.42 1306V1320.6C1069.26 1320.6 1057.3 1323.64 1047.56 1332.97C1037.83 1342.29 1032.97 1353.64 1032.97 1367.23C1032.56 1379.8 1035.81 1392.37 1046.35 1404.13C1055.36 1414.18 1066.38 1418.12 1079.8 1418.12V1432.31Z" fill="url(#paint34_linear_191_469)"/>
<path d="M1186.35 1310.48C1203.28 1310.63 1216.26 1308.43 1229.23 1316.54C1242.45 1324.8 1244.64 1331.14 1246.87 1339.25C1248.09 1345.94 1249.24 1354.05 1245.65 1364.8C1243.83 1370.27 1238.56 1378.18 1230.85 1382.84L1218.69 1372.3C1226.19 1367.43 1227.81 1364.8 1229.84 1360.34C1231.87 1355.88 1231.87 1348.98 1231.26 1345.94C1229.84 1338.84 1228.83 1335.6 1218.69 1328.51C1210.46 1322.74 1200.08 1325.38 1186.66 1325.26L1186.35 1310.48Z" fill="url(#paint35_linear_191_469)"/>
<path d="M724.195 1376.56L740.415 1374.73L753.188 1412.24L737.171 1412.65L724.195 1376.56Z" fill="url(#paint36_linear_191_469)"/>
</g>
<mask id="mask1_191_469" style="mask-type:alpha" maskUnits="userSpaceOnUse" x="2794" y="1151" width="2208" height="2127">
<rect x="2795" y="1152" width="2206" height="2125" rx="99" fill="black" stroke="white" stroke-width="2"/>
</mask>
<g mask="url(#mask1_191_469)">
<rect x="2799" y="1156" width="2198" height="2117" rx="95" fill="white" stroke="#2FA3DB" stroke-width="10"/>
<path d="M2487.14 2628.66L5034.5 1683L5096.5 1765.5L2463 2747.07L2487.14 2628.66Z" fill="url(#paint37_linear_191_469)"/>
<path d="M2573.14 2776.66L5120.5 1831L5182.5 1913.5L2549 2895.07L2573.14 2776.66Z" fill="url(#paint38_linear_191_469)"/>
<path d="M3401.74 1418.88C3392.07 1418.88 3383.34 1417.25 3375.54 1413.99C3367.74 1410.61 3361.04 1406.01 3355.45 1400.19C3349.98 1394.37 3345.73 1387.61 3342.7 1379.93C3339.68 1372.24 3338.16 1364.03 3338.16 1355.3C3338.16 1346.69 3339.68 1338.53 3342.7 1330.85C3345.73 1323.16 3349.98 1316.41 3355.45 1310.59C3361.04 1304.77 3367.74 1300.23 3375.54 1296.97C3383.34 1293.71 3392.07 1292.08 3401.74 1292.08C3411.4 1292.08 3420.14 1293.71 3427.94 1296.97C3435.74 1300.23 3442.37 1304.77 3447.85 1310.59C3453.44 1316.41 3457.74 1323.16 3460.77 1330.85C3463.8 1338.53 3465.31 1346.74 3465.31 1355.48C3465.31 1364.09 3463.8 1372.24 3460.77 1379.93C3457.74 1387.61 3453.44 1394.37 3447.85 1400.19C3442.37 1406.01 3435.74 1410.61 3427.94 1413.99C3420.14 1417.25 3411.4 1418.88 3401.74 1418.88ZM3401.74 1404.03C3408.38 1404.03 3414.55 1402.81 3420.25 1400.36C3425.96 1397.92 3430.91 1394.48 3435.1 1390.06C3439.41 1385.63 3442.72 1380.51 3445.05 1374.69C3447.38 1368.75 3448.55 1362.29 3448.55 1355.3C3448.55 1348.43 3447.38 1342.03 3445.05 1336.09C3442.72 1330.15 3439.46 1325.03 3435.27 1320.72C3431.08 1316.29 3426.07 1312.92 3420.25 1310.59C3414.55 1308.14 3408.38 1306.92 3401.74 1306.92C3394.98 1306.92 3388.76 1308.14 3383.05 1310.59C3377.34 1312.92 3372.4 1316.29 3368.2 1320.72C3364.01 1325.03 3360.75 1330.15 3358.42 1336.09C3356.09 1342.03 3354.93 1348.49 3354.93 1355.48C3354.93 1362.35 3356.09 1368.75 3358.42 1374.69C3360.75 1380.51 3364.01 1385.63 3368.2 1390.06C3372.4 1394.48 3377.34 1397.92 3383.05 1400.36C3388.76 1402.81 3394.98 1404.03 3401.74 1404.03Z" fill="url(#paint39_linear_191_469)"/>
<path d="M3079.77 1420.81C3075.7 1420.81 3072.09 1419.77 3068.94 1417.67C3065.8 1415.46 3063.24 1411.91 3061.26 1407.02L3021.26 1296.46H3039.6L3075.06 1400.21C3075.87 1402.18 3076.63 1403.52 3077.33 1404.22C3078.03 1404.92 3078.84 1405.27 3079.77 1405.27C3080.94 1405.27 3081.81 1404.92 3082.39 1404.22C3083.09 1403.52 3083.85 1402.18 3084.66 1400.21L3120.82 1296.46H3138.46L3098.46 1407.02C3096.71 1411.79 3094.21 1415.28 3090.95 1417.5C3087.69 1419.71 3083.96 1420.81 3079.77 1420.81Z" fill="url(#paint40_linear_191_469)"/>
<path d="M3240.61 1420.81C3236.53 1420.81 3232.92 1419.77 3229.78 1417.67C3226.64 1415.46 3224.07 1411.91 3222.1 1407.02L3182.1 1296.46H3200.44L3235.89 1400.21C3236.71 1402.18 3237.47 1403.52 3238.16 1404.22C3238.86 1404.92 3239.68 1405.27 3240.61 1405.27C3241.77 1405.27 3242.65 1404.92 3243.23 1404.22C3243.93 1403.52 3244.68 1402.18 3245.5 1400.21L3281.65 1296.46H3299.29L3259.3 1407.02C3257.55 1411.79 3255.05 1415.28 3251.79 1417.5C3248.53 1419.71 3244.8 1420.81 3240.61 1420.81Z" fill="url(#paint41_linear_191_469)"/>
<path d="M3317.01 1419.95V1295.25" stroke="url(#paint42_linear_191_469)" stroke-width="16.6532"/>
<path d="M3475.29 1418.85V1296.59H3528.91C3536.59 1296.59 3543.58 1298.28 3549.87 1301.65C3556.16 1304.91 3561.16 1309.57 3564.89 1315.63C3568.61 1321.56 3570.48 1328.55 3570.48 1336.58C3570.48 1344.74 3568.38 1351.95 3564.19 1358.24C3560.11 1364.41 3554.58 1369.01 3547.6 1372.04L3560.7 1398.59C3561.63 1400.45 3562.62 1401.85 3563.67 1402.78C3564.83 1403.59 3566.46 1404 3568.56 1404H3577.29V1418.85H3565.94C3561.39 1418.85 3557.38 1417.68 3553.88 1415.35C3550.51 1413.03 3547.71 1409.88 3545.5 1405.92L3530.83 1376.06C3529.67 1376.17 3528.38 1376.29 3526.99 1376.41C3525.71 1376.41 3524.37 1376.41 3522.97 1376.41H3492.06V1418.85H3475.29ZM3492.06 1361.56H3526.64C3531.64 1361.56 3536.19 1360.57 3540.26 1358.59C3544.45 1356.61 3547.71 1353.76 3550.04 1350.03C3552.49 1346.31 3553.71 1341.82 3553.71 1336.58C3553.71 1331.23 3552.49 1326.69 3550.04 1322.96C3547.6 1319.24 3544.34 1316.38 3540.26 1314.4C3536.19 1312.42 3531.7 1311.43 3526.81 1311.43H3492.06V1361.56Z" fill="url(#paint43_linear_191_469)"/>
<path d="M3160.22 1419.95V1295.25" stroke="url(#paint44_linear_191_469)" stroke-width="16.6532"/>
<path d="M3129.14 1381.27L3076.04 1385.81L3045.99 1385.81L3037.25 1390.25L3028.11 1395.15L3014.71 1398.61L3004.96 1400.23L2992.57 1400.23L2978.15 1398.62L2964.95 1396.78L2953.58 1393.73L2942.6 1390.25L2931.6 1386.3L2913.16 1380.73L2929.31 1379.27L2942.6 1375.49L2949.11 1372L2953.58 1367.73L3048.48 1362.89L3122.89 1354.6L3589.64 1309.89L3591.47 1328.01L3592.94 1346.37L3592.95 1346.5L3129.14 1381.27Z" fill="url(#paint45_linear_191_469)"/>
<path d="M3589.28 1309.91C3591.85 1309.69 3594.43 1309.95 3596.88 1310.66C3599.33 1311.38 3601.6 1312.55 3603.56 1314.09C3605.53 1315.64 3607.14 1317.53 3608.31 1319.67C3609.48 1321.81 3610.19 1324.14 3610.4 1326.55C3610.6 1328.95 3610.3 1331.37 3609.51 1333.68C3608.71 1335.98 3607.45 1338.13 3605.77 1339.98C3604.1 1341.84 3602.06 1343.37 3599.77 1344.49C3597.47 1345.61 3594.97 1346.3 3592.4 1346.52L3590.84 1328.22L3589.28 1309.91Z" fill="url(#paint46_linear_191_469)"/>
<path d="M2985.61 1380.06C2985.96 1377.02 2988.12 1374.51 2991.07 1373.72L2993.9 1372.96C2994.43 1372.82 2994.98 1372.72 2995.53 1372.65L3003.44 1371.78L3012.16 1371.16L3016.68 1371.46C3019.82 1371.67 3022.55 1373.67 3023.7 1376.59C3023.98 1377.31 3024.16 1378.06 3024.23 1378.83L3024.56 1382.47C3024.64 1383.3 3024.43 1384.12 3023.98 1384.82C3023.43 1385.69 3022.55 1386.28 3021.55 1386.48L3017.78 1387.21L3014.19 1387.54C3013.53 1387.6 3012.86 1387.57 3012.2 1387.47L3012.04 1387.44C3011.35 1387.33 3010.68 1387.11 3010.05 1386.8C3008.91 1386.22 3007.62 1385.98 3006.35 1386.09L3005.53 1386.17L3004.12 1386.3C3002.86 1386.41 3001.66 1386.86 3000.63 1387.59C2999.97 1388.06 2999.24 1388.41 2998.46 1388.64L2997.83 1388.82C2997.16 1389.01 2996.48 1389.14 2995.79 1389.2L2993.1 1389.45L2989.89 1389.36C2988.92 1389.33 2987.98 1388.96 2987.26 1388.3C2986.52 1387.62 2986.06 1386.68 2985.97 1385.68L2985.59 1381.57C2985.55 1381.07 2985.55 1380.56 2985.61 1380.06Z" fill="white" stroke="white" stroke-width="1.13403"/>
<path d="M3401.7 1418.52C3384.73 1418.52 3368.46 1413.32 3356.46 1401.17C3342.91 1387.45 3338.54 1371.33 3338.54 1354.14C3337.72 1336.07 3347.86 1318.77 3359.86 1306.62C3373.47 1295.45 3389.11 1292 3403.32 1292V1306.62C3391.14 1306.62 3379.15 1309.67 3369.41 1319.01C3359.66 1328.35 3354.78 1339.72 3354.78 1353.33C3354.38 1365.92 3357.63 1378.52 3368.19 1390.29C3377.22 1400.37 3388.25 1404.31 3401.7 1404.31V1418.52Z" fill="url(#paint47_linear_191_469)"/>
<path d="M3508.42 1296.49C3525.39 1296.64 3538.38 1294.44 3551.38 1302.56C3564.62 1310.83 3566.81 1317.19 3569.05 1325.31C3570.27 1332.01 3571.42 1340.13 3567.83 1350.9C3566 1356.38 3560.72 1364.3 3553.01 1368.97L3540.82 1358.41C3548.33 1353.54 3549.96 1350.9 3551.99 1346.43C3554.02 1341.96 3554.02 1335.06 3553.41 1332.01C3551.99 1324.9 3550.97 1321.65 3540.82 1314.55C3532.57 1308.77 3522.18 1311.42 3508.74 1311.3L3508.42 1296.49Z" fill="url(#paint48_linear_191_469)"/>
<path d="M3045.48 1362.67L3061.72 1360.84L3074.52 1398.42L3058.47 1398.82L3051.98 1380.75L3045.48 1362.67Z" fill="url(#paint49_linear_191_469)"/>
</g>
<defs>
<linearGradient id="paint0_linear_191_469" x1="1131.61" y1="3760.68" x2="1131.61" y2="3900.89" gradientUnits="userSpaceOnUse">
<stop stop-color="#007FBC"/>
<stop offset="1" stop-color="#0058A8"/>
</linearGradient>
<linearGradient id="paint1_linear_191_469" x1="779.935" y1="3768.62" x2="779.935" y2="3897.04" gradientUnits="userSpaceOnUse">
<stop stop-color="#007FBC"/>
<stop offset="1" stop-color="#0058A8"/>
</linearGradient>
<linearGradient id="paint2_linear_191_469" x1="950.555" y1="3768.62" x2="950.555" y2="3897.04" gradientUnits="userSpaceOnUse">
<stop stop-color="#007FBC"/>
<stop offset="1" stop-color="#0058A8"/>
</linearGradient>
<linearGradient id="paint3_linear_191_469" x1="978.879" y1="3742.08" x2="978.879" y2="3880.02" gradientUnits="userSpaceOnUse">
<stop stop-color="#007FBC"/>
<stop offset="1" stop-color="#0058A8"/>
</linearGradient>
<linearGradient id="paint4_linear_191_469" x1="1271.37" y1="3763.18" x2="1271.37" y2="3903.39" gradientUnits="userSpaceOnUse">
<stop stop-color="#007FBC"/>
<stop offset="1" stop-color="#0058A8"/>
</linearGradient>
<linearGradient id="paint5_linear_191_469" x1="881.25" y1="3762.95" x2="881.25" y2="3900.9" gradientUnits="userSpaceOnUse">
<stop stop-color="#007FBC"/>
<stop offset="1" stop-color="#0058A8"/>
</linearGradient>
<linearGradient id="paint6_linear_191_469" x1="972.787" y1="3754.1" x2="987.308" y2="3924.49" gradientUnits="userSpaceOnUse">
<stop offset="0.320006" stop-color="#8C8C8C"/>
<stop offset="0.464163" stop-color="white"/>
<stop offset="0.588519" stop-color="#8C8C8C"/>
</linearGradient>
<linearGradient id="paint7_linear_191_469" x1="1346.68" y1="3747.07" x2="1364.45" y2="3854.31" gradientUnits="userSpaceOnUse">
<stop offset="0.26627" stop-color="#8C8C8C"/>
<stop offset="0.493222" stop-color="white"/>
<stop offset="0.688878" stop-color="#8C8C8C"/>
</linearGradient>
<linearGradient id="paint8_linear_191_469" x1="1095.19" y1="3760" x2="1095.19" y2="3901.35" gradientUnits="userSpaceOnUse">
<stop stop-color="#007FBC"/>
<stop offset="1" stop-color="#0058A8"/>
</linearGradient>
<linearGradient id="paint9_linear_191_469" x1="1284.53" y1="3902.26" x2="1283.62" y2="3752.74" gradientUnits="userSpaceOnUse">
<stop offset="0.0508721" stop-color="#0058A8"/>
<stop offset="0.967966" stop-color="#007FBC"/>
</linearGradient>
<linearGradient id="paint10_linear_191_469" x1="753.39" y1="3726.42" x2="759.969" y2="3907.93" gradientUnits="userSpaceOnUse">
<stop offset="0.245967" stop-color="#007FBC"/>
<stop offset="0.913683" stop-color="#0058A8"/>
</linearGradient>
<linearGradient id="paint11_linear_191_469" x1="3517.87" y1="3690.67" x2="3517.87" y2="3828.91" gradientUnits="userSpaceOnUse">
<stop stop-color="#6ACFFF"/>
<stop offset="1" stop-color="#2FA3DB"/>
</linearGradient>
<linearGradient id="paint12_linear_191_469" x1="3171.15" y1="3698.5" x2="3171.15" y2="3825.11" gradientUnits="userSpaceOnUse">
<stop stop-color="#6ACFFF"/>
<stop offset="1" stop-color="#2FA3DB"/>
</linearGradient>
<linearGradient id="paint13_linear_191_469" x1="3339.36" y1="3698.5" x2="3339.36" y2="3825.11" gradientUnits="userSpaceOnUse">
<stop stop-color="#6ACFFF"/>
<stop offset="1" stop-color="#2FA3DB"/>
</linearGradient>
<linearGradient id="paint14_linear_191_469" x1="3423.02" y1="3693.58" x2="3423.02" y2="3830.92" gradientUnits="userSpaceOnUse">
<stop stop-color="#6ACFFF"/>
<stop offset="1" stop-color="#2FA3DB"/>
</linearGradient>
<linearGradient id="paint15_linear_191_469" x1="3655.67" y1="3693.13" x2="3655.67" y2="3831.37" gradientUnits="userSpaceOnUse">
<stop stop-color="#6ACFFF"/>
<stop offset="1" stop-color="#2FA3DB"/>
</linearGradient>
<linearGradient id="paint16_linear_191_469" x1="3250.34" y1="3693.58" x2="3250.34" y2="3830.93" gradientUnits="userSpaceOnUse">
<stop stop-color="#6ACFFF"/>
<stop offset="1" stop-color="#2FA3DB"/>
</linearGradient>
<linearGradient id="paint17_linear_191_469" x1="3360.42" y1="3649.96" x2="3379.88" y2="3888.64" gradientUnits="userSpaceOnUse">
<stop/>
<stop offset="0.464163" stop-color="#EBEBEB"/>
<stop offset="1"/>
</linearGradient>
<linearGradient id="paint18_linear_191_469" x1="3715.63" y1="3622.9" x2="3743.16" y2="3853.25" gradientUnits="userSpaceOnUse">
<stop stop-color="#050505"/>
<stop offset="0.0845522" stop-color="#2E2E2E"/>
<stop offset="0.470908" stop-color="#EBEBEB"/>
<stop offset="0.984504"/>
</linearGradient>
<linearGradient id="paint19_linear_191_469" x1="3482.38" y1="3690" x2="3482.38" y2="3829.36" gradientUnits="userSpaceOnUse">
<stop stop-color="#6ACFFF"/>
<stop offset="1" stop-color="#2FA3DB"/>
</linearGradient>
<linearGradient id="paint20_linear_191_469" x1="3667.75" y1="3830.25" x2="3668.1" y2="3694.9" gradientUnits="userSpaceOnUse">
<stop stop-color="#2FA3DB"/>
<stop offset="1" stop-color="#6ACFFF"/>
</linearGradient>
<linearGradient id="paint21_linear_191_469" x1="3145.65" y1="3695.37" x2="3147.22" y2="3828.46" gradientUnits="userSpaceOnUse">
<stop stop-color="#76D3FF"/>
<stop offset="1" stop-color="#2FA3DB"/>
</linearGradient>
<linearGradient id="paint22_linear_191_469" x1="894.001" y1="2105" x2="894.001" y2="2747.07" gradientUnits="userSpaceOnUse">
<stop stop-color="#007FBC"/>
<stop offset="1" stop-color="#0058A8"/>
</linearGradient>
<linearGradient id="paint23_linear_191_469" x1="980.001" y1="2253" x2="980.001" y2="2895.07" gradientUnits="userSpaceOnUse">
<stop stop-color="#007FBC"/>
<stop offset="1" stop-color="#0058A8"/>
</linearGradient>
<linearGradient id="paint24_linear_191_469" x1="1081.22" y1="1306.61" x2="1081.22" y2="1431.91" gradientUnits="userSpaceOnUse">
<stop stop-color="#007FBC"/>
<stop offset="1" stop-color="#0058A8"/>
</linearGradient>
<linearGradient id="paint25_linear_191_469" x1="766.967" y1="1313.71" x2="766.967" y2="1428.46" gradientUnits="userSpaceOnUse">
<stop stop-color="#007FBC"/>
<stop offset="1" stop-color="#0058A8"/>
</linearGradient>
<linearGradient id="paint26_linear_191_469" x1="919.436" y1="1313.71" x2="919.436" y2="1428.46" gradientUnits="userSpaceOnUse">
<stop stop-color="#007FBC"/>
<stop offset="1" stop-color="#0058A8"/>
</linearGradient>
<linearGradient id="paint27_linear_191_469" x1="938.73" y1="1289.98" x2="938.73" y2="1413.26" gradientUnits="userSpaceOnUse">
<stop stop-color="#007FBC"/>
<stop offset="1" stop-color="#0058A8"/>
</linearGradient>
<linearGradient id="paint28_linear_191_469" x1="1206.12" y1="1308.84" x2="1206.12" y2="1434.14" gradientUnits="userSpaceOnUse">
<stop stop-color="#007FBC"/>
<stop offset="1" stop-color="#0058A8"/>
</linearGradient>
<linearGradient id="paint29_linear_191_469" x1="859.742" y1="1308.64" x2="859.742" y2="1431.91" gradientUnits="userSpaceOnUse">
<stop stop-color="#007FBC"/>
<stop offset="1" stop-color="#0058A8"/>
</linearGradient>
<linearGradient id="paint30_linear_191_469" x1="939.31" y1="1300.73" x2="952.286" y2="1452.99" gradientUnits="userSpaceOnUse">
<stop offset="0.320006" stop-color="#8C8C8C"/>
<stop offset="0.464163" stop-color="white"/>
<stop offset="0.588519" stop-color="#8C8C8C"/>
</linearGradient>
<linearGradient id="paint31_linear_191_469" x1="1273.44" y1="1294.44" x2="1289.32" y2="1390.28" gradientUnits="userSpaceOnUse">
<stop offset="0.26627" stop-color="#8C8C8C"/>
<stop offset="0.493222" stop-color="white"/>
<stop offset="0.688878" stop-color="#8C8C8C"/>
</linearGradient>
<linearGradient id="paint32_linear_191_469" x1="939.307" y1="1300.73" x2="952.283" y2="1452.99" gradientUnits="userSpaceOnUse">
<stop offset="0.320006" stop-color="#8C8C8C"/>
<stop offset="0.464163" stop-color="white"/>
<stop offset="0.588519" stop-color="#8C8C8C"/>
</linearGradient>
<linearGradient id="paint33_linear_191_469" x1="1273.43" y1="1294.44" x2="1289.32" y2="1390.28" gradientUnits="userSpaceOnUse">
<stop offset="0.26627" stop-color="#8C8C8C"/>
<stop offset="0.493222" stop-color="white"/>
<stop offset="0.688878" stop-color="#8C8C8C"/>
</linearGradient>
<linearGradient id="paint34_linear_191_469" x1="1048.68" y1="1306" x2="1048.68" y2="1432.31" gradientUnits="userSpaceOnUse">
<stop stop-color="#007FBC"/>
<stop offset="1" stop-color="#0058A8"/>
</linearGradient>
<linearGradient id="paint35_linear_191_469" x1="1217.88" y1="1433.12" x2="1217.07" y2="1299.51" gradientUnits="userSpaceOnUse">
<stop offset="0.0508721" stop-color="#0058A8"/>
<stop offset="0.967966" stop-color="#007FBC"/>
</linearGradient>
<linearGradient id="paint36_linear_191_469" x1="743.253" y1="1276" x2="749.133" y2="1438.19" gradientUnits="userSpaceOnUse">
<stop offset="0.245967" stop-color="#007FBC"/>
<stop offset="0.913683" stop-color="#0058A8"/>
</linearGradient>
<linearGradient id="paint37_linear_191_469" x1="3214" y1="2105" x2="3214" y2="2747.07" gradientUnits="userSpaceOnUse">
<stop stop-color="#76D3FF"/>
<stop offset="1" stop-color="#2FA3DB"/>
</linearGradient>
<linearGradient id="paint38_linear_191_469" x1="3300" y1="2253" x2="3300" y2="2895.07" gradientUnits="userSpaceOnUse">
<stop stop-color="#76D3FF"/>
<stop offset="1" stop-color="#2FA3DB"/>
</linearGradient>
<linearGradient id="paint39_linear_191_469" x1="3403.13" y1="1292.61" x2="3403.13" y2="1418.11" gradientUnits="userSpaceOnUse">
<stop stop-color="#6ACFFF"/>
<stop offset="1" stop-color="#2FA3DB"/>
</linearGradient>
<linearGradient id="paint40_linear_191_469" x1="3088.34" y1="1299.72" x2="3088.34" y2="1414.67" gradientUnits="userSpaceOnUse">
<stop stop-color="#6ACFFF"/>
<stop offset="1" stop-color="#2FA3DB"/>
</linearGradient>
<linearGradient id="paint41_linear_191_469" x1="3241.05" y1="1299.72" x2="3241.05" y2="1414.67" gradientUnits="userSpaceOnUse">
<stop stop-color="#6ACFFF"/>
<stop offset="1" stop-color="#2FA3DB"/>
</linearGradient>
<linearGradient id="paint42_linear_191_469" x1="3317.01" y1="1295.25" x2="3317.01" y2="1419.95" gradientUnits="userSpaceOnUse">
<stop stop-color="#6ACFFF"/>
<stop offset="1" stop-color="#2FA3DB"/>
</linearGradient>
<linearGradient id="paint43_linear_191_469" x1="3528.22" y1="1294.85" x2="3528.22" y2="1420.36" gradientUnits="userSpaceOnUse">
<stop stop-color="#6ACFFF"/>
<stop offset="1" stop-color="#2FA3DB"/>
</linearGradient>
<linearGradient id="paint44_linear_191_469" x1="3160.22" y1="1295.25" x2="3160.22" y2="1419.95" gradientUnits="userSpaceOnUse">
<stop stop-color="#6ACFFF"/>
<stop offset="1" stop-color="#2FA3DB"/>
</linearGradient>
<linearGradient id="paint45_linear_191_469" x1="3260.06" y1="1255.64" x2="3277.73" y2="1472.34" gradientUnits="userSpaceOnUse">
<stop/>
<stop offset="0.464163" stop-color="#EBEBEB"/>
<stop offset="1"/>
</linearGradient>
<linearGradient id="paint46_linear_191_469" x1="3582.57" y1="1231.06" x2="3607.56" y2="1440.2" gradientUnits="userSpaceOnUse">
<stop stop-color="#050505"/>
<stop offset="0.0845522" stop-color="#2E2E2E"/>
<stop offset="0.470908" stop-color="#EBEBEB"/>
<stop offset="0.984504"/>
</linearGradient>
<linearGradient id="paint47_linear_191_469" x1="3370.91" y1="1292" x2="3370.91" y2="1418.52" gradientUnits="userSpaceOnUse">
<stop stop-color="#6ACFFF"/>
<stop offset="1" stop-color="#2FA3DB"/>
</linearGradient>
<linearGradient id="paint48_linear_191_469" x1="3539.19" y1="1419.34" x2="3539.51" y2="1296.45" gradientUnits="userSpaceOnUse">
<stop stop-color="#2FA3DB"/>
<stop offset="1" stop-color="#6ACFFF"/>
</linearGradient>
<linearGradient id="paint49_linear_191_469" x1="3065.18" y1="1296.87" x2="3066.6" y2="1417.71" gradientUnits="userSpaceOnUse">
<stop stop-color="#76D3FF"/>
<stop offset="1" stop-color="#2FA3DB"/>
</linearGradient>
</defs>
</svg>
